<svg width="40" height="49" viewBox="0 0 40 49" fill="none" xmlns="http://www.w3.org/2000/svg">
<path d="M37.2009 32.7474L28.0363 20.85C27.5929 20.2693 27.3527 19.5589 27.3528 18.8283V6.42184C28.089 6.16256 28.7096 5.65112 29.1048 4.9781C29.4999 4.30509 29.6442 3.51394 29.5119 2.74477C29.3797 1.9756 28.9795 1.27805 28.3822 0.775681C27.7849 0.273308 27.0291 -0.0014729 26.2487 5.93816e-06H12.9987C12.2182 -0.0014729 11.4624 0.273308 10.8652 0.775681C10.2679 1.27805 9.86769 1.9756 9.73544 2.74477C9.60318 3.51394 9.74742 4.30509 10.1426 4.9781C10.5378 5.65112 11.1584 6.16256 11.8945 6.42184V18.8283C11.8934 19.5594 11.6516 20.2699 11.2066 20.85L2.04203 32.7474C0.921145 34.2034 0.23052 35.9442 0.0484239 37.7727C-0.133672 39.6011 0.200043 41.444 1.01175 43.0924C1.82345 44.7409 3.08069 46.129 4.64097 47.0995C6.20125 48.07 8.00218 48.584 9.83965 48.5833H29.4077C31.2448 48.5832 33.0451 48.0686 34.6048 47.0978C36.1644 46.127 37.421 44.7388 38.2322 43.0905C39.0433 41.4422 39.3767 39.5996 39.1944 37.7716C39.0121 35.9435 38.3216 34.2031 37.2009 32.7474ZM12.9567 22.1938C13.4819 21.5049 13.8382 20.7023 13.9968 19.8507C14.0333 19.8507 14.0653 19.8717 14.1073 19.8717H16.3156C16.6084 19.8717 16.8893 19.7554 17.0964 19.5483C17.3034 19.3412 17.4198 19.0604 17.4198 18.7675C17.4198 18.4747 17.3034 18.1938 17.0964 17.9868C16.8893 17.7797 16.6084 17.6634 16.3156 17.6634H14.1028V15.4583H16.3112C16.604 15.4583 16.8849 15.342 17.0919 15.1349C17.299 14.9279 17.4153 14.647 17.4153 14.3542C17.4153 14.0613 17.299 13.7805 17.0919 13.5734C16.8849 13.3663 16.604 13.25 16.3112 13.25H14.1028V11.0417H16.3112C16.604 11.0417 16.8849 10.9253 17.0919 10.7183C17.299 10.5112 17.4153 10.2303 17.4153 9.93751C17.4153 9.64466 17.299 9.36381 17.0919 9.15674C16.8849 8.94967 16.604 8.83334 16.3112 8.83334H14.1028V6.62501H19.6237C19.9165 6.62501 20.1974 6.50867 20.4044 6.3016C20.6115 6.09453 20.7278 5.81368 20.7278 5.52084C20.7278 5.228 20.6115 4.94715 20.4044 4.74008C20.1974 4.533 19.9165 4.41667 19.6237 4.41667H12.9987C12.7058 4.41667 12.425 4.30034 12.2179 4.09327C12.0108 3.8862 11.8945 3.60535 11.8945 3.31251C11.8945 3.01966 12.0108 2.73881 12.2179 2.53174C12.425 2.32467 12.7058 2.20834 12.9987 2.20834H26.2487C26.5415 2.20834 26.8224 2.32467 27.0294 2.53174C27.2365 2.73881 27.3528 3.01966 27.3528 3.31251C27.3528 3.60535 27.2365 3.8862 27.0294 4.09327C26.8224 4.30034 26.5415 4.41667 26.2487 4.41667H25.1445C24.8517 4.41667 24.5708 4.533 24.3637 4.74008C24.1567 4.94715 24.0403 5.228 24.0403 5.52084C24.0403 5.81368 24.1567 6.09453 24.3637 6.3016C24.5708 6.50867 24.8517 6.62501 25.1445 6.62501V18.8283C25.1477 20.0453 25.5504 21.2277 26.2906 22.1938L28.754 25.3958H10.4933L12.9567 22.1938ZM10.7903 40.8542C10.3536 40.8542 9.92662 40.7247 9.56346 40.482C9.2003 40.2393 8.91725 39.8944 8.75011 39.4909C8.58296 39.0874 8.53923 38.6434 8.62444 38.215C8.70965 37.7866 8.91997 37.3931 9.22882 37.0843C9.53766 36.7755 9.93114 36.5651 10.3595 36.4799C10.7879 36.3947 11.2319 36.4385 11.6354 36.6056C12.039 36.7727 12.3838 37.0558 12.6265 37.419C12.8692 37.7821 12.9987 38.2091 12.9987 38.6458C12.9987 39.2315 12.766 39.7932 12.3519 40.2074C11.9377 40.6215 11.376 40.8542 10.7903 40.8542ZM18.5195 34.2292C18.0827 34.2292 17.6558 34.0997 17.2926 33.857C16.9295 33.6143 16.6464 33.2695 16.4793 32.8659C16.3121 32.4624 16.2684 32.0184 16.3536 31.59C16.4388 31.1616 16.6491 30.7682 16.958 30.4593C17.2668 30.1505 17.6603 29.9401 18.0887 29.8549C18.5171 29.7697 18.9611 29.8135 19.3646 29.9806C19.7681 30.1477 20.113 30.4308 20.3557 30.794C20.5983 31.1571 20.7278 31.5841 20.7278 32.0208C20.7278 32.6065 20.4952 33.1682 20.081 33.5824C19.6669 33.9965 19.1052 34.2292 18.5195 34.2292ZM26.2487 43.0625C25.5935 43.0625 24.9531 42.8682 24.4083 42.5042C23.8636 42.1403 23.439 41.6229 23.1883 41.0176C22.9376 40.4124 22.872 39.7463 22.9998 39.1038C23.1276 38.4612 23.4431 37.871 23.9064 37.4077C24.3696 36.9445 24.9599 36.629 25.6024 36.5012C26.245 36.3733 26.911 36.4389 27.5163 36.6897C28.1216 36.9404 28.6389 37.3649 29.0029 37.9097C29.3669 38.4544 29.5612 39.0949 29.5612 39.75C29.5612 40.6285 29.2122 41.4711 28.591 42.0923C27.9697 42.7135 27.1272 43.0625 26.2487 43.0625Z" fill="#2991D6"/>
</svg>
