<svg width="55" height="55" viewBox="0 0 55 55" fill="none" xmlns="http://www.w3.org/2000/svg">
<path d="M36.85 12.2925C38.0845 12.3054 39.2665 12.794 40.15 13.6565C40.5956 14.0842 40.952 14.5962 41.1984 15.1626C41.4448 15.7291 41.5764 16.3388 41.5855 16.9565C41.6011 17.1894 41.6985 17.4093 41.8605 17.5774C42.0226 17.7455 42.2388 17.8509 42.471 17.875C42.5798 17.8757 42.6876 17.8549 42.7884 17.8138C42.8891 17.7726 42.9807 17.712 43.0579 17.6353C43.1351 17.5586 43.1963 17.4674 43.2381 17.367C43.2799 17.2665 43.3015 17.1588 43.3015 17.05C43.2642 15.8416 43.7056 14.6673 44.5296 13.7826C45.3535 12.8979 46.4935 12.3742 47.7015 12.3255H47.85C48.0688 12.3255 48.2786 12.2386 48.4333 12.0838C48.588 11.9291 48.675 11.7193 48.675 11.5005C48.675 11.2817 48.588 11.0718 48.4333 10.9171C48.2786 10.7624 48.0688 10.6755 47.85 10.6755H47.795C47.2137 10.6746 46.6386 10.5568 46.1038 10.3291C45.569 10.1013 45.0855 9.76838 44.682 9.34998C43.893 8.54234 43.4189 7.47913 43.3455 6.35248C43.3455 6.28648 43.3455 6.22048 43.3455 6.14898C43.3444 6.06867 43.3314 5.98898 43.307 5.91248C43.2748 5.722 43.1768 5.54885 43.03 5.42322C42.8833 5.29758 42.6971 5.22743 42.504 5.22498C42.2852 5.22498 42.0753 5.31189 41.9206 5.46661C41.7659 5.62133 41.679 5.83117 41.679 6.04998C41.679 6.14898 41.679 6.24798 41.679 6.35248C41.5892 7.53404 41.0499 8.63624 40.172 9.43222C39.2942 10.2282 38.1447 10.6574 36.96 10.6315H36.85C36.7416 10.6329 36.6346 10.6557 36.5351 10.6985C36.4355 10.7413 36.3454 10.8032 36.2698 10.8809C36.1942 10.9585 36.1347 11.0503 36.0945 11.1509C36.0544 11.2516 36.0345 11.3591 36.036 11.4675C36.0387 11.6835 36.125 11.8901 36.2768 12.0439C36.4286 12.1977 36.634 12.2868 36.85 12.2925ZM42.5205 9.18498C42.7901 9.66407 43.1211 10.106 43.505 10.4995C43.882 10.8813 44.3073 11.2123 44.77 11.484C43.7771 12.0685 42.9646 12.9154 42.4215 13.9315C42.124 13.3987 41.7538 12.91 41.3215 12.4795C40.9343 12.118 40.5038 11.8058 40.04 11.55C41.0689 11.0052 41.9273 10.1867 42.5205 9.18498Z" fill="#2991D6"/>
<path d="M29.3755 36.3C27.5279 36.2348 25.7411 35.6233 24.2409 34.5428C22.7408 33.4623 21.5946 31.9613 20.9473 30.2295C20.3 28.4978 20.1806 26.613 20.6042 24.8134C21.0279 23.0138 21.9755 21.3802 23.3273 20.1191C24.6792 18.8579 26.3745 18.0258 28.1992 17.728C30.0238 17.4301 31.8958 17.6799 33.5785 18.4457C35.2612 19.2115 36.6791 20.459 37.653 22.0304C38.6269 23.6019 39.1131 25.4268 39.05 27.2745C39.0464 27.3829 39.0641 27.4909 39.1022 27.5924C39.1403 27.6939 39.198 27.7869 39.2721 27.8661C39.3462 27.9452 39.4351 28.009 39.5338 28.0538C39.6326 28.0986 39.7392 28.1235 39.8475 28.127C39.9558 28.1322 40.064 28.1157 40.1658 28.0785C40.2676 28.0412 40.3609 27.9841 40.4403 27.9103C40.5198 27.8365 40.5836 27.7476 40.6282 27.6489C40.6728 27.5501 40.6972 27.4434 40.7 27.335C40.7748 25.161 40.2034 23.0137 39.0579 21.1644C37.9125 19.3152 36.2445 17.8471 34.2648 16.9457C32.2851 16.0443 30.0825 15.7501 27.9357 16.1003C25.7888 16.4505 23.7939 17.4293 22.2033 18.9131C20.6126 20.3969 19.4976 22.319 18.9992 24.4364C18.5008 26.5538 18.6413 28.7714 19.4031 30.8089C20.1649 32.8464 21.5136 34.6124 23.2789 35.8834C25.0441 37.1545 27.1466 37.8737 29.3205 37.95H29.348C29.5668 37.9537 29.7781 37.8702 29.9354 37.7181C30.0927 37.566 30.1831 37.3576 30.1868 37.1388C30.1904 36.92 30.107 36.7087 29.9549 36.5514C29.8027 36.3941 29.5943 36.3037 29.3755 36.3Z" fill="#2991D6"/>
<path d="M13.2 17.05C14.2877 17.05 15.3511 16.7274 16.2556 16.1231C17.1601 15.5187 17.865 14.6597 18.2813 13.6547C18.6976 12.6498 18.8065 11.5439 18.5943 10.477C18.3821 9.4101 17.8582 8.43009 17.089 7.6609C16.3198 6.89171 15.3398 6.36789 14.2729 6.15567C13.2061 5.94345 12.1002 6.05237 11.0952 6.46865C10.0902 6.88493 9.23122 7.58988 8.62687 8.49435C8.02252 9.39882 7.69995 10.4622 7.69995 11.55C7.69995 13.0087 8.27941 14.4076 9.31086 15.4391C10.3423 16.4705 11.7413 17.05 13.2 17.05ZM13.2 7.69999C13.9614 7.69999 14.7058 7.92579 15.3389 8.34883C15.972 8.77188 16.4655 9.37316 16.7569 10.0767C17.0483 10.7802 17.1245 11.5543 16.976 12.3011C16.8274 13.0479 16.4607 13.7339 15.9223 14.2724C15.3839 14.8108 14.6979 15.1775 13.951 15.326C13.2042 15.4746 12.4301 15.3983 11.7266 15.1069C11.0231 14.8155 10.4218 14.3221 9.99879 13.6889C9.57575 13.0558 9.34995 12.3114 9.34995 11.55C9.34995 10.5289 9.75558 9.54964 10.4776 8.82763C11.1996 8.10561 12.1789 7.69999 13.2 7.69999Z" fill="#2991D6"/>
<path d="M41.294 30.25C38.8871 30.1661 36.5456 31.0418 34.7844 32.6844C33.0232 34.327 31.9866 36.6019 31.9027 39.0088C31.8189 41.4156 32.6945 43.7572 34.3371 45.5184C35.9797 47.2796 38.2546 48.3161 40.6615 48.4H40.9805C43.3873 48.4416 45.7121 47.5254 47.4434 45.8529C49.1747 44.1804 50.1707 41.8886 50.2122 39.4818C50.2538 37.0749 49.3376 34.7502 47.6651 33.0189C45.9926 31.2876 43.7008 30.2916 41.294 30.25ZM46.0405 44.748C45.1563 45.5749 44.0834 46.1731 42.9152 46.4904C41.7469 46.8077 40.5188 46.8346 39.3378 46.5687C38.1568 46.3027 37.0587 45.7521 36.1393 44.9647C35.2198 44.1773 34.5068 43.177 34.0623 42.051C33.6179 40.9249 33.4555 39.7073 33.5893 38.5042C33.7232 37.301 34.1491 36.1488 34.8302 35.148C35.5112 34.1472 36.4266 33.328 37.4966 32.7619C38.5667 32.1958 39.7589 31.8999 40.9695 31.9H41.25C42.7184 31.9503 44.1389 32.4351 45.3316 33.2931C46.5244 34.151 47.4358 35.3436 47.9504 36.7198C48.4651 38.096 48.5599 39.5939 48.2229 41.024C47.8858 42.4541 47.132 43.752 46.057 44.7535L46.0405 44.748Z" fill="#2991D6"/>
<path d="M9.9 25.3C8.48587 25.3 7.10349 25.7193 5.92768 26.505C4.75186 27.2906 3.83543 28.4073 3.29426 29.7138C2.7531 31.0203 2.6115 32.4579 2.88739 33.8449C3.16327 35.2318 3.84424 36.5059 4.84419 37.5058C5.84414 38.5057 7.11814 39.1867 8.50511 39.4626C9.89207 39.7385 11.3297 39.5969 12.6362 39.0557C13.9427 38.5146 15.0594 37.5981 15.845 36.4223C16.6307 35.2465 17.05 33.8641 17.05 32.45C17.05 30.5537 16.2967 28.7351 14.9558 27.3942C13.6149 26.0533 11.7963 25.3 9.9 25.3ZM9.9 37.95C8.81221 37.95 7.74884 37.6274 6.84437 37.0231C5.9399 36.4187 5.23495 35.5597 4.81867 34.5547C4.40238 33.5498 4.29347 32.4439 4.50568 31.377C4.7179 30.3101 5.24173 29.3301 6.01092 28.5609C6.78011 27.7917 7.76011 27.2679 8.82701 27.0557C9.8939 26.8434 10.9998 26.9524 12.0048 27.3686C13.0098 27.7849 13.8687 28.4899 14.4731 29.3944C15.0774 30.2988 15.4 31.3622 15.4 32.45C15.4 33.1723 15.2577 33.8875 14.9813 34.5547C14.7049 35.222 14.2998 35.8284 13.7891 36.3391C13.2784 36.8498 12.6721 37.2549 12.0048 37.5313C11.3375 37.8077 10.6223 37.95 9.9 37.95Z" fill="#2991D6"/>
<path d="M25.575 45.331H25.531C24.729 45.3289 23.9603 45.0107 23.3915 44.4455C22.8114 43.8731 22.4612 43.1081 22.407 42.295C22.407 42.2455 22.407 42.196 22.407 42.1465C22.3988 41.9206 22.309 41.7053 22.1543 41.5405C21.9996 41.3756 21.7904 41.2725 21.5655 41.25C21.3476 41.2529 21.1397 41.3419 20.9872 41.4974C20.8347 41.653 20.75 41.8626 20.7515 42.0805C20.7515 42.1575 20.7515 42.229 20.7515 42.3005C20.6855 44.1375 18.997 45.2925 17.4185 45.309H17.314C17.2056 45.3104 17.0986 45.3332 16.9991 45.376C16.8995 45.4188 16.8094 45.4808 16.7338 45.5584C16.6582 45.636 16.5986 45.7278 16.5585 45.8284C16.5184 45.9291 16.4985 46.0367 16.5 46.145C16.5007 46.2536 16.5229 46.3609 16.5655 46.4608C16.608 46.5606 16.67 46.6511 16.7477 46.7268C16.8255 46.8025 16.9176 46.8621 17.0185 46.9019C17.1195 46.9418 17.2274 46.9612 17.336 46.959C17.7677 46.9584 18.1952 47.0437 18.5937 47.2099C18.9921 47.3761 19.3536 47.6198 19.657 47.927C19.9718 48.2284 20.2238 48.5892 20.3984 48.9885C20.5731 49.3878 20.6669 49.8177 20.6745 50.2535C20.6857 50.483 20.7801 50.7005 20.9401 50.8655C21.1 51.0304 21.3144 51.1316 21.5435 51.15C21.7613 51.1471 21.9692 51.0581 22.1217 50.9026C22.2742 50.747 22.3589 50.5374 22.3575 50.3195C22.3307 49.4654 22.6431 48.6354 23.2264 48.0108C23.8097 47.3863 24.6165 47.0181 25.4705 46.9865H25.575C25.7938 46.9865 26.0036 46.8996 26.1583 46.7449C26.313 46.5901 26.4 46.3803 26.4 46.1615C26.4 45.9427 26.313 45.7329 26.1583 45.5781C26.0036 45.4234 25.7938 45.3365 25.575 45.3365V45.331ZM21.4995 47.5805C21.2999 47.2805 21.0694 47.0021 20.812 46.75C20.5973 46.547 20.3654 46.363 20.119 46.2C20.6924 45.849 21.1883 45.3849 21.5765 44.836C21.767 45.1299 21.9883 45.4028 22.2365 45.65C22.4345 45.8517 22.6499 46.0357 22.88 46.2C22.3315 46.5648 21.862 47.0361 21.4995 47.586V47.5805Z" fill="#2991D6"/>
<path d="M30.0025 19.8C26.323 19.668 23.2375 22.7425 23.1 26.642C23.0956 26.7508 23.1128 26.8594 23.1506 26.9615C23.1883 27.0637 23.2459 27.1573 23.3201 27.2371C23.3942 27.3169 23.4834 27.3812 23.5825 27.4263C23.6816 27.4714 23.7887 27.4965 23.8975 27.5H23.925C24.1392 27.5001 24.3449 27.417 24.4989 27.2682C24.6528 27.1193 24.7429 26.9165 24.75 26.7025C24.8545 23.7105 27.1865 21.384 29.9475 21.45C30.0558 21.4552 30.164 21.4386 30.2658 21.4014C30.3676 21.3642 30.4609 21.307 30.5404 21.2333C30.6198 21.1595 30.6836 21.0706 30.7282 20.9718C30.7728 20.873 30.7972 20.7663 30.8 20.658C30.8045 20.5492 30.7873 20.4406 30.7495 20.3384C30.7118 20.2363 30.6541 20.1427 30.58 20.0629C30.5059 19.9831 30.4167 19.9188 30.3176 19.8737C30.2184 19.8286 30.1114 19.8035 30.0025 19.8Z" fill="#2991D6"/>
<path d="M40.7275 33.275C39.3431 33.2692 38.0128 33.8124 37.0283 34.7856C36.0437 35.7588 35.4851 37.0827 35.475 38.467C35.4713 38.5754 35.489 38.6834 35.5271 38.7849C35.5652 38.8864 35.6229 38.9794 35.697 39.0586C35.7711 39.1377 35.86 39.2015 35.9588 39.2463C36.0575 39.2911 36.1641 39.316 36.2725 39.3195H36.3C36.5141 39.3196 36.7199 39.2365 36.8738 39.0877C37.0278 38.9389 37.1178 38.736 37.125 38.522C37.1249 37.576 37.4968 36.6679 38.1606 35.9939C38.8243 35.3199 39.7266 34.934 40.6725 34.9195C40.7814 34.9255 40.8903 34.9093 40.9928 34.872C41.0953 34.8348 41.1892 34.7771 41.2689 34.7026C41.3485 34.6281 41.4122 34.5383 41.4563 34.4385C41.5003 34.3387 41.5236 34.2311 41.525 34.122C41.5309 33.9041 41.4503 33.6927 41.3009 33.534C41.1515 33.3753 40.9453 33.2822 40.7275 33.275Z" fill="#2991D6"/>
<path d="M9.075 28.325C7.106 28.325 5.5 30.173 5.5 32.45C5.5 32.6688 5.58692 32.8787 5.74164 33.0334C5.89635 33.1881 6.1062 33.275 6.325 33.275C6.5438 33.275 6.75365 33.1881 6.90836 33.0334C7.06308 32.8787 7.15 32.6688 7.15 32.45C7.15 31.086 8.0135 29.975 9.075 29.975C9.2938 29.975 9.50365 29.8881 9.65836 29.7334C9.81308 29.5787 9.9 29.3688 9.9 29.15C9.9 28.9312 9.81308 28.7214 9.65836 28.5666C9.50365 28.4119 9.2938 28.325 9.075 28.325Z" fill="#2991D6"/>
</svg>
