<svg width="68" height="53" viewBox="0 0 68 53" fill="none" xmlns="http://www.w3.org/2000/svg">
<path d="M32.865 13.4262C33.6304 12.7617 33.9323 11.7176 33.5334 10.7895C33.2854 10.2305 33.0159 9.68203 32.714 9.15469L32.3798 8.58516C32.0564 8.05781 31.7006 7.54102 31.3232 7.04531C30.7087 6.24375 29.6306 5.98008 28.6603 6.29648L25.62 7.27734C24.4664 6.34922 23.1403 5.58984 21.7171 5.07305L21.0595 2.01445C20.8546 1.03359 20.0784 0.253125 19.065 0.137109C18.3534 0.0421875 17.6311 0 16.8979 0H16.8225C16.0893 0 15.367 0.0421875 14.6554 0.126562C13.642 0.242578 12.8657 1.03359 12.6609 2.00391L12.0032 5.07305C10.5693 5.60039 9.25402 6.34922 8.10043 7.27734L5.04933 6.30703C4.07902 5.99063 3.0009 6.2543 2.38636 7.05586C2.00902 7.55156 1.65324 8.06836 1.31902 8.5957L0.995584 9.15469C0.693709 9.68203 0.424178 10.2305 0.176209 10.8C-0.222697 11.7176 0.0791775 12.7617 0.844646 13.4367L3.23808 15.525C3.11949 16.2316 3.0548 16.9699 3.0548 17.7187C3.0548 18.4676 3.11949 19.2059 3.23808 19.923L0.844646 22.0113C0.0791775 22.6758 -0.222697 23.7199 0.176209 24.648C0.424178 25.207 0.693709 25.7555 0.995584 26.2934L1.31902 26.8418C1.64246 27.3797 1.99824 27.8859 2.38636 28.3816C3.0009 29.1832 4.07902 29.4469 5.04933 29.1305L8.08965 28.1496C9.24324 29.0777 10.5693 29.8371 11.9925 30.3539L12.6501 33.423C12.855 34.4039 13.6312 35.1844 14.6446 35.3004C15.367 35.3848 16.1001 35.427 16.844 35.427C17.5879 35.427 18.3211 35.3848 19.0434 35.3004C20.0568 35.1844 20.8331 34.3934 21.0379 33.423L21.6956 30.3539C23.1295 29.8266 24.4448 29.0777 25.5984 28.1496L28.6387 29.1305C29.609 29.4469 30.6871 29.1832 31.3017 28.3816C31.679 27.8859 32.0348 27.3797 32.3582 26.8418L32.6925 26.2723C32.9943 25.7449 33.2639 25.1965 33.5118 24.6375C33.9107 23.7199 33.6089 22.6758 32.8434 22.0008L30.45 19.9125C30.5686 19.1953 30.6332 18.457 30.6332 17.7082C30.6332 16.9594 30.5686 16.2211 30.45 15.5039L32.8434 13.4156L32.865 13.4262ZM11.6798 17.7187C11.6798 16.3761 12.225 15.0884 13.1955 14.139C14.166 13.1896 15.4823 12.6562 16.8548 12.6562C18.2273 12.6562 19.5436 13.1896 20.5141 14.139C21.4846 15.0884 22.0298 16.3761 22.0298 17.7187C22.0298 19.0614 21.4846 20.3491 20.5141 21.2985C19.5436 22.2479 18.2273 22.7812 16.8548 22.7812C15.4823 22.7812 14.166 22.2479 13.1955 21.2985C12.225 20.3491 11.6798 19.0614 11.6798 17.7187ZM54.0178 51.9434C54.697 52.6922 55.7643 52.9875 56.7131 52.5973C57.2845 52.3547 57.8451 52.091 58.3842 51.7957L58.9664 51.4687C59.5054 51.1523 60.0337 50.8043 60.5404 50.4352C61.3598 49.834 61.6293 48.7793 61.3059 47.8301L60.3032 44.8559C61.252 43.7273 62.0282 42.4301 62.5565 41.0379L65.6939 40.3945C66.6965 40.1941 67.4943 39.4348 67.6129 38.4434C67.6992 37.7367 67.7423 37.0195 67.7423 36.2918C67.7423 35.5641 67.6992 34.8469 67.6129 34.1402C67.4943 33.1488 66.6857 32.3895 65.6939 32.1891L62.5565 31.5352C62.0175 30.1324 61.252 28.8457 60.3032 27.7172L61.3059 24.743C61.6293 23.7937 61.3598 22.7391 60.5404 22.1379C60.0337 21.7687 59.5054 21.4207 58.9664 21.0937L58.395 20.7773C57.8559 20.482 57.2953 20.2184 56.7131 19.9758C55.7751 19.5855 54.7078 19.8809 54.0178 20.6297L51.8831 22.9711C51.15 22.8551 50.3953 22.7918 49.6298 22.7918C48.8643 22.7918 48.1096 22.8551 47.3765 22.9711L45.2418 20.6297C44.5626 19.8809 43.4953 19.5855 42.5465 19.9758C41.9751 20.2184 41.4145 20.482 40.8646 20.7773L40.304 21.0937C39.7542 21.4102 39.2367 21.7582 38.73 22.1379C37.9106 22.7391 37.641 23.7937 37.9645 24.743L38.9671 27.7172C38.0184 28.8457 37.2421 30.143 36.7139 31.5352L33.5765 32.168C32.5739 32.3684 31.776 33.1277 31.6575 34.1191C31.5712 34.8258 31.5281 35.543 31.5281 36.2707C31.5281 36.9984 31.5712 37.7156 31.6575 38.4223C31.776 39.4137 32.5846 40.173 33.5765 40.3734L36.7139 41.0168C37.2529 42.4195 38.0184 43.7062 38.9671 44.8348L37.9645 47.809C37.641 48.7582 37.9106 49.8129 38.73 50.4141C39.2367 50.7832 39.7542 51.1312 40.304 51.4477L40.8862 51.7746C41.4253 52.0699 41.9859 52.3336 42.5573 52.5762C43.4953 52.9664 44.5626 52.6711 45.2526 51.9223L47.3873 49.5809C48.1204 49.6969 48.8751 49.7602 49.6406 49.7602C50.406 49.7602 51.1607 49.6969 51.8939 49.5809L54.0285 51.9223L54.0178 51.9434ZM49.6298 31.2187C50.3094 31.2187 50.9823 31.3497 51.6102 31.6041C52.238 31.8585 52.8085 32.2314 53.2891 32.7015C53.7696 33.1716 54.1508 33.7297 54.4109 34.3439C54.6709 34.9581 54.8048 35.6164 54.8048 36.2812C54.8048 36.9461 54.6709 37.6044 54.4109 38.2186C54.1508 38.8328 53.7696 39.3909 53.2891 39.861C52.8085 40.3311 52.238 40.704 51.6102 40.9584C50.9823 41.2128 50.3094 41.3437 49.6298 41.3437C48.9502 41.3437 48.2773 41.2128 47.6494 40.9584C47.0216 40.704 46.4511 40.3311 45.9705 39.861C45.49 39.3909 45.1088 38.8328 44.8487 38.2186C44.5887 37.6044 44.4548 36.9461 44.4548 36.2812C44.4548 35.6164 44.5887 34.9581 44.8487 34.3439C45.1088 33.7297 45.49 33.1716 45.9705 32.7015C46.4511 32.2314 47.0216 31.8585 47.6494 31.6041C48.2773 31.3497 48.9502 31.2187 49.6298 31.2187Z" fill="#2991D6"/>
</svg>
