<svg width="261" height="52" viewBox="0 0 261 52" fill="none" xmlns="http://www.w3.org/2000/svg">
<path d="M53.84 40V12H63.64C65.8267 12 67.64 12.3733 69.08 13.12C70.52 13.84 71.5867 14.84 72.28 16.12C73 17.3733 73.36 18.8 73.36 20.4C73.36 21.92 73.0133 23.32 72.32 24.6C71.6533 25.8533 70.6 26.8533 69.16 27.6C67.72 28.3467 65.88 28.72 63.64 28.72H58.08V40H53.84ZM58.08 25.24H63.44C65.44 25.24 66.8667 24.8133 67.72 23.96C68.6 23.08 69.04 21.8933 69.04 20.4C69.04 18.8533 68.6 17.6533 67.72 16.8C66.8667 15.92 65.44 15.48 63.44 15.48H58.08V25.24ZM90.4709 40.48C87.6976 40.48 85.2709 39.8667 83.1909 38.64C81.1109 37.4133 79.4843 35.72 78.3109 33.56C77.1376 31.3733 76.5509 28.8533 76.5509 26C76.5509 23.1467 77.1376 20.64 78.3109 18.48C79.4843 16.2933 81.1109 14.5867 83.1909 13.36C85.2709 12.1333 87.6976 11.52 90.4709 11.52C93.2443 11.52 95.6709 12.1333 97.7509 13.36C99.8309 14.5867 101.444 16.2933 102.591 18.48C103.764 20.64 104.351 23.1467 104.351 26C104.351 28.8533 103.764 31.3733 102.591 33.56C101.444 35.72 99.8309 37.4133 97.7509 38.64C95.6709 39.8667 93.2443 40.48 90.4709 40.48ZM90.4709 36.68C92.3909 36.68 94.0576 36.2533 95.4709 35.4C96.9109 34.5467 98.0309 33.32 98.8309 31.72C99.6309 30.12 100.031 28.2133 100.031 26C100.031 23.7867 99.6309 21.88 98.8309 20.28C98.0309 18.68 96.9109 17.4533 95.4709 16.6C94.0576 15.7467 92.3909 15.32 90.4709 15.32C88.5509 15.32 86.8709 15.7467 85.4309 16.6C83.9909 17.4533 82.8709 18.68 82.0709 20.28C81.2976 21.88 80.9109 23.7867 80.9109 26C80.9109 28.2133 81.2976 30.12 82.0709 31.72C82.8709 33.32 83.9909 34.5467 85.4309 35.4C86.8709 36.2533 88.5509 36.68 90.4709 36.68ZM121.994 40.48C119.221 40.48 116.794 39.8667 114.714 38.64C112.634 37.4133 111.008 35.72 109.834 33.56C108.661 31.3733 108.074 28.8533 108.074 26C108.074 23.1467 108.661 20.64 109.834 18.48C111.008 16.2933 112.634 14.5867 114.714 13.36C116.794 12.1333 119.221 11.52 121.994 11.52C124.768 11.52 127.194 12.1333 129.274 13.36C131.354 14.5867 132.968 16.2933 134.114 18.48C135.288 20.64 135.874 23.1467 135.874 26C135.874 28.8533 135.288 31.3733 134.114 33.56C132.968 35.72 131.354 37.4133 129.274 38.64C127.194 39.8667 124.768 40.48 121.994 40.48ZM121.994 36.68C123.914 36.68 125.581 36.2533 126.994 35.4C128.434 34.5467 129.554 33.32 130.354 31.72C131.154 30.12 131.554 28.2133 131.554 26C131.554 23.7867 131.154 21.88 130.354 20.28C129.554 18.68 128.434 17.4533 126.994 16.6C125.581 15.7467 123.914 15.32 121.994 15.32C120.074 15.32 118.394 15.7467 116.954 16.6C115.514 17.4533 114.394 18.68 113.594 20.28C112.821 21.88 112.434 23.7867 112.434 26C112.434 28.2133 112.821 30.12 113.594 31.72C114.394 33.32 115.514 34.5467 116.954 35.4C118.394 36.2533 120.074 36.68 121.994 36.68ZM140.598 40V12H144.838V36.64H157.558V40H140.598Z" fill="#2991D6"/>
<path d="M168.801 40V14.76H160.441V12H180.521V14.76H172.161V40H168.801ZM184.624 40V12H201.944V14.76H187.984V24.52H200.744V27.24H187.984V37.24H201.944V40H184.624ZM219.482 40.48C216.736 40.48 214.362 39.88 212.362 38.68C210.389 37.4533 208.856 35.76 207.762 33.6C206.669 31.4133 206.122 28.88 206.122 26C206.122 23.1467 206.669 20.64 207.762 18.48C208.856 16.2933 210.389 14.5867 212.362 13.36C214.362 12.1333 216.736 11.52 219.482 11.52C222.682 11.52 225.282 12.2933 227.282 13.84C229.309 15.36 230.602 17.4933 231.162 20.24H227.442C227.016 18.5067 226.136 17.12 224.802 16.08C223.496 15.0133 221.722 14.48 219.482 14.48C217.482 14.48 215.736 14.9467 214.242 15.88C212.749 16.7867 211.589 18.1067 210.762 19.84C209.962 21.5467 209.562 23.6 209.562 26C209.562 28.4 209.962 30.4667 210.762 32.2C211.589 33.9067 212.749 35.2267 214.242 36.16C215.736 37.0667 217.482 37.52 219.482 37.52C221.722 37.52 223.496 37.0133 224.802 36C226.136 34.96 227.016 33.5867 227.442 31.88H231.162C230.602 34.5733 229.309 36.68 227.282 38.2C225.282 39.72 222.682 40.48 219.482 40.48ZM235.991 40V12H239.351V24.36H253.871V12H257.231V40H253.871V27.12H239.351V40H235.991Z" fill="black"/>
<rect x="21.9204" y="20.9705" width="4" height="4" transform="rotate(45 21.9204 20.9705)" fill="black"/>
<line x1="22.274" y1="4.35355" x2="2.47497" y2="24.1525" stroke="black"/>
<line x1="41.3658" y1="23.4454" x2="21.5668" y2="43.2443" stroke="black"/>
<line x1="22.2739" y1="43.2444" x2="2.4749" y2="23.4454" stroke="black"/>
<line x1="41.3657" y1="24.1526" x2="21.5667" y2="4.35363" stroke="black"/>
<rect x="4.94971" y="26.6274" width="27" height="3" transform="rotate(45 4.94971 26.6274)" fill="black"/>
<rect x="41.0122" y="28.7488" width="27" height="3" transform="rotate(135 41.0122 28.7488)" fill="black"/>
<rect x="11.314" y="20.2634" width="20" height="5" transform="rotate(45 11.314 20.2634)" fill="black"/>
<rect x="21.9204" y="9.65674" width="5" height="20" transform="rotate(45 21.9204 9.65674)" fill="black"/>
<rect x="21.9204" y="9.65674" width="20" height="5" transform="rotate(45 21.9204 9.65674)" fill="black"/>
<rect x="32.5269" y="20.2634" width="5" height="20" transform="rotate(45 32.5269 20.2634)" fill="black"/>
</svg>
