<svg width="81" height="55" viewBox="0 0 81 55" fill="none" xmlns="http://www.w3.org/2000/svg">
<path d="M40.5 0L58.4268 12.2222H22.5733L40.5 0Z" fill="#2991D6"/>
<path d="M40.5 24.4444L22.5732 12.2222L58.4267 12.2222L40.5 24.4444Z" fill="#2991D6"/>
<path d="M60.3 16.2963L78.2267 28.5185H42.3732L60.3 16.2963Z" fill="#D9D9D9"/>
<path d="M60.3 40.7408L42.3733 28.5186L78.2267 28.5186L60.3 40.7408Z" fill="#D9D9D9"/>
<path d="M40.5 30.5556L58.4268 42.7778H22.5733L40.5 30.5556Z" fill="#D9D9D9"/>
<path d="M40.5 55L22.5732 42.7778L58.4267 42.7778L40.5 55Z" fill="#D9D9D9"/>
<path d="M20.7 16.2963L38.6267 28.5185H2.77327L20.7 16.2963Z" fill="#D9D9D9"/>
<path d="M20.7 40.7408L2.7733 28.5186L38.6268 28.5186L20.7 40.7408Z" fill="#D9D9D9"/>
</svg>
