<svg width="46" height="46" viewBox="0 0 46 46" fill="none" xmlns="http://www.w3.org/2000/svg">
<path d="M41.6875 23C41.6875 27.9562 39.7186 32.7095 36.2141 36.2141C32.7095 39.7186 27.9562 41.6875 23 41.6875C18.0438 41.6875 13.2905 39.7186 9.78594 36.2141C6.28136 32.7095 4.3125 27.9562 4.3125 23C4.3125 18.0438 6.28136 13.2905 9.78594 9.78594C13.2905 6.28136 18.0438 4.3125 23 4.3125C27.9562 4.3125 32.7095 6.28136 36.2141 9.78594C39.7186 13.2905 41.6875 18.0438 41.6875 23ZM0 23C0 29.1 2.42321 34.9501 6.73654 39.2635C11.0499 43.5768 16.9 46 23 46C29.1 46 34.9501 43.5768 39.2635 39.2635C43.5768 34.9501 46 29.1 46 23C46 16.9 43.5768 11.0499 39.2635 6.73654C34.9501 2.42321 29.1 0 23 0C16.9 0 11.0499 2.42321 6.73654 6.73654C2.42321 11.0499 0 16.9 0 23ZM20.8438 10.7812V23C20.8438 23.7188 21.2031 24.3926 21.8051 24.7969L30.4301 30.5469C31.4184 31.2117 32.757 30.9422 33.4219 29.9449C34.0867 28.9477 33.8172 27.618 32.8199 26.9531L25.1562 21.85V10.7812C25.1562 9.58633 24.1949 8.625 23 8.625C21.8051 8.625 20.8438 9.58633 20.8438 10.7812Z" fill="#2991D6"/>
</svg>
