<svg width="1208" height="106" viewBox="0 0 1208 106" fill="none" xmlns="http://www.w3.org/2000/svg">
<path fill-rule="evenodd" clip-rule="evenodd" d="M0 29.6769L40.2667 20.1366C80.5333 10.5962 161.067 -8.48459 241.6 4.23592C322.133 16.9564 402.667 61.4782 483.2 67.8385C563.733 74.1987 644.267 42.3975 724.8 23.3167C805.333 4.23592 885.867 -2.12433 966.4 7.41605C1046.93 16.9564 1127.47 42.3975 1167.73 55.118L1208 67.8385V106H1167.73C1127.47 106 1046.93 106 966.4 106C885.867 106 805.333 106 724.8 106C644.267 106 563.733 106 483.2 106C402.667 106 322.133 106 241.6 106C161.067 106 80.5333 106 40.2667 106H0V29.6769Z" fill="#2991D6"/>
</svg>
