<svg width="1920" height="111" viewBox="0 0 1920 111" fill="none" xmlns="http://www.w3.org/2000/svg">
<path fill-rule="evenodd" clip-rule="evenodd" d="M0 35.4673L32 29.1729C64 22.8786 128 10.2898 192 3.99539C256 -2.299 320 -2.299 384 14.486C448 31.2711 512 64.8411 576 69.0374C640 73.2337 704 48.0561 768 35.4673C832 22.8786 896 22.8786 960 31.2711C1024 39.6636 1088 56.4486 1152 66.9393C1216 77.4299 1280 81.6262 1344 69.0374C1408 56.4486 1472 27.0748 1536 12.3879C1600 -2.299 1664 -2.299 1728 3.99539C1792 10.2898 1856 22.8786 1888 29.1729L1920 35.4673V111H1888C1856 111 1792 111 1728 111C1664 111 1600 111 1536 111C1472 111 1408 111 1344 111C1280 111 1216 111 1152 111C1088 111 1024 111 960 111C896 111 832 111 768 111C704 111 640 111 576 111C512 111 448 111 384 111C320 111 256 111 192 111C128 111 64 111 32 111H0V35.4673Z" fill="inherit"/>
</svg>
